# xmcd
#
# Track frame offsets: 
#        150
#        11670
#        25992
#        44968
#        67276
#        86779
#        104844
#        120604
#        139854
#        156097
#        189100
#
# Disc length: 2895 seconds
#
# Revision: 2
# Processed by: cddbd v1.5.2PL0 Copyright (c) Steve Scherf et al.
# Submitted via: ExactAudioCopy v0.95a4
#
DISCID=a20b4d0b
DTITLE=The Veldman Brothers - Spreadin' Around
DYEAR=2011
DGENRE=Blues
TTITLE0=Spreadin' Around
TTITLE1=Heading For The Door
TTITLE2=Need To Know
TTITLE3=Leavin'
TTITLE4=Evil
TTITLE5=Target
TTITLE6=B - Low
TTITLE7=Everyday I Play The Blues
TTITLE8=Tell Your Daddy
TTITLE9=Saw You There
TTITLE10=Questions
EXTD=Year: 2011\n\n\n\n                                               
EXTD=www.veldmanbrothers.nl\n\n\n                            
EXTD=   www.youtube.com/user/theveldmanbrothers1
EXTT0=
EXTT1=
EXTT2=
EXTT3=
EXTT4=
EXTT5=
EXTT6=
EXTT7=
EXTT8=
EXTT9=
EXTT10=
PLAYORDER=
